<svg width="24" height="24" viewBox="0 0 24 24" fill="none" xmlns="http://www.w3.org/2000/svg">
<rect width="24" height="24" rx="12" fill="#AB9EBB"/>
<path d="M14.0952 17V18.0417C14.0952 18.3869 13.8234 18.6667 13.4881 18.6667H6.60714C6.27182 18.6667 6 18.3869 6 18.0417V8.45837C6 8.11319 6.27182 7.83337 6.60714 7.83337H8.42857V15.5417C8.42857 16.3458 9.06407 17 9.84524 17H14.0952ZM14.0952 8.04171V5.33337H9.84524C9.50992 5.33337 9.2381 5.61319 9.2381 5.95837V15.5417C9.2381 15.8869 9.50992 16.1667 9.84524 16.1667H16.7262C17.0615 16.1667 17.3333 15.8869 17.3333 15.5417V8.66671H14.7024C14.3685 8.66671 14.0952 8.38546 14.0952 8.04171ZM17.1555 7.23366L15.4873 5.51642C15.3735 5.39922 15.2191 5.33337 15.058 5.33337H14.9048V7.83337H17.3333V7.67559C17.3333 7.50983 17.2694 7.35087 17.1555 7.23366Z" fill="white"/>
</svg>
