<svg width="131" height="131" viewBox="0 0 131 131" fill="none" xmlns="http://www.w3.org/2000/svg">
<path d="M68.3627 0C66.1067 0 63.9805 0.532208 62.0797 1.45636C61.5646 1.36722 61.0376 1.31086 60.4975 1.31086C55.4298 1.31086 51.3215 5.41909 51.3215 10.4869V26.2172H51.3451C51.585 34.6945 58.5168 41.4965 67.0518 41.4965C75.5868 41.4965 82.5186 34.6945 82.7585 26.2172H82.7821V14.4194C82.7821 6.45597 76.3261 0 68.3627 0Z" fill="#8B6D8C"/>
<path d="M78.8499 35.3926H55.2544C52.3587 35.3926 50.011 37.7403 50.011 40.636V47.1903H84.0933V40.636C84.0933 37.7403 81.7455 35.3926 78.8499 35.3926Z" fill="#C68DC9"/>
<path d="M77.5381 41.947H78.849V47.1905H77.5381V41.947ZM55.2535 41.947H56.5644V47.1905H55.2535V41.947Z" fill="#A680A8"/>
<path d="M63.12 28.8392V36.7044C63.12 38.8765 64.8805 40.6369 67.0526 40.6369C69.2247 40.6369 70.9851 38.8765 70.9851 36.7044V28.8392H63.12Z" fill="#DCCDE4"/>
<path d="M61.8078 6.55481C61.8078 6.55481 61.8039 13.5128 55.2535 14.3361V22.2851C55.2535 28.8014 60.535 34.0828 67.0513 34.0828C73.5675 34.0828 78.849 28.8014 78.849 22.2851V15.7059C64.2853 15.213 61.8078 6.55481 61.8078 6.55481Z" fill="#DCCDE4"/>
<path d="M72.2948 28.8392H61.808C61.808 28.8392 63.1188 31.4609 67.0514 31.4609C70.984 31.4609 72.2948 28.8392 72.2948 28.8392Z" fill="#A680A8"/>
<path d="M88.0251 47.191H78.8491L80.16 24.9064H88.0251V47.191Z" fill="#C68DC9"/>
<path d="M91.357 20.2422C91.1683 19.3338 90.2795 18.7492 89.3685 18.9353L85.8632 19.6615H82.7827C81.3355 19.6615 80.161 20.836 80.161 22.2832V24.9049H86.7153C88.1297 24.9049 89.2754 23.7815 89.3265 22.3789L89.7919 22.2832H90.6479C90.6479 22.1862 90.6112 22.0945 90.5889 22.0001C91.1709 21.6383 91.5039 20.9527 91.357 20.2422Z" fill="#DCCDE4"/>
<path d="M97.2022 20.9735C97.2022 20.2499 96.6162 19.6626 95.8913 19.6626L88.0262 20.9735H81.4719C80.747 20.9735 80.161 21.5607 80.161 22.2843V24.906H88.0262L95.8913 22.2843C95.8913 22.2843 97.2022 21.6984 97.2022 20.9735Z" fill="#DCCDE4"/>
<path d="M68.3625 25.5607H65.7408C65.379 25.5607 65.0853 25.2671 65.0853 24.9053C65.0853 24.5435 65.379 24.2499 65.7408 24.2499H68.3625C68.7243 24.2499 69.0179 24.5435 69.0179 24.9053C69.0179 25.2671 68.7243 25.5607 68.3625 25.5607Z" fill="#BBAFCA"/>
<path d="M61.8087 20.9735C61.0851 20.9735 60.4978 20.3862 60.4978 19.6626V18.3518C60.4978 17.6282 61.0851 17.0409 61.8087 17.0409C62.5323 17.0409 63.1195 17.6282 63.1195 18.3518V19.6626C63.1195 20.3862 62.5323 20.9735 61.8087 20.9735ZM72.2955 20.9735C71.5719 20.9735 70.9847 20.3862 70.9847 19.6626V18.3518C70.9847 17.6282 71.5719 17.0409 72.2955 17.0409C73.0191 17.0409 73.6064 17.6282 73.6064 18.3518V19.6626C73.6064 20.3862 73.0191 20.9735 72.2955 20.9735Z" fill="#5A4D5B" fill-opacity="0.9"/>
<path d="M118.024 39.0016C118.024 39.0016 114.852 38.9977 114.488 41.622L112.784 54.2836C112.297 57.1439 115.58 57.7403 117.556 57.7809C119.531 57.8216 121.175 56.3219 121.228 54.4304L121.364 50.4375L121.564 44.5544L121.623 42.6549C121.623 41.0714 120.941 39.3804 118.024 39.0016Z" fill="#FFD7FD"/>
<path d="M119.159 58.8641H114.448L113.793 56.6933H119.815L119.159 58.8641ZM107.59 39.9877C107.59 39.9877 107.778 38.9862 109.355 39.0963L108.92 40.4741L107.59 39.9877Z" fill="#FFD7FD"/>
<path d="M118.832 33.2479C118.832 32.2596 118.031 31.4586 117.043 31.4586H111.446C110.457 31.4586 109.656 32.2596 109.656 33.2479V53.2647C109.656 54.2531 113.079 55.0541 114.067 55.0541H117.043C118.031 55.0541 118.832 54.2531 118.832 53.2647V33.2479Z" fill="#6D6E71"/>
<path d="M117.522 33.2479C117.522 32.2596 116.721 31.4586 115.733 31.4586H110.135C109.147 31.4586 108.346 32.2596 108.346 33.2479V53.2647C108.346 54.2531 109.147 55.0541 110.135 55.0541H115.733C116.721 55.0541 117.522 54.2531 117.522 53.2647V33.2479Z" fill="#231F20"/>
<path d="M109.656 34.0807H116.211V51.1218H109.656V34.0807Z" fill="#867F9B"/>
<path d="M107.75 48.677L107.921 49.6536L108.625 49.5946L109.411 49.5395C110.053 49.4937 110.569 49.0545 110.75 48.4751L107.75 48.677ZM107.75 45.5427L107.776 46.4997L108.629 46.4905C109.317 46.4708 109.897 46.0527 110.166 45.4654L107.75 45.5427ZM107.737 42.069L107.751 43.0089L108.043 43.0495C108.73 43.0967 109.348 42.7375 109.671 42.1791L107.737 42.069ZM120.334 43.8308L120.125 43.8216C119.504 43.7967 118.975 44.2843 118.948 44.9057L118.853 48.1907L121.168 48.6206L121.341 44.553C121.181 44.148 120.795 43.8491 120.334 43.8308Z" fill="#FFBAFC"/>
<path d="M120.671 45.6902L120.483 45.778C119.919 46.0415 119.243 45.7963 118.979 45.2327L117.979 43.0947C117.715 42.531 117.961 41.8546 118.524 41.5911L118.713 41.5033C119.277 41.2398 119.953 41.4849 120.216 42.0486L121.217 44.1866C121.48 44.7503 121.235 45.4267 120.671 45.6902Z" fill="#FFBAFC"/>
<path d="M119.26 51.3388L119.051 51.3296C118.43 51.3034 117.942 50.7738 117.967 50.1525L118.18 44.993C118.206 44.3716 118.735 43.884 119.357 43.9089L119.565 43.918C120.187 43.9443 120.674 44.4739 120.649 45.0952L120.437 50.2547C120.412 50.8774 119.882 51.365 119.26 51.3388Z" fill="#FFD7FD"/>
<path d="M119.992 45.7645L119.803 45.8523C119.24 46.1158 118.563 45.8706 118.3 45.307L117.298 43.169C117.035 42.6053 117.28 41.9289 117.844 41.6654L118.032 41.5763C118.596 41.3128 119.272 41.5579 119.536 42.1216L120.536 44.2596C120.801 44.8233 120.556 45.501 119.992 45.7645ZM121.215 48.2092C120.186 47.774 119.067 48.0467 118.628 48.3587C114.843 51.038 115.4 55.1856 118.04 55.7584C120.177 56.2212 120.901 54.7242 120.901 54.7242L121.139 50.4351L121.215 48.2092ZM108.143 49.5332L108.388 51.7525L109.137 51.6882C109.137 51.6882 109.518 51.6397 109.809 51.3789C110.014 51.1967 110.174 50.9122 110.124 50.456C110.001 49.347 108.892 49.469 108.892 49.469L108.143 49.5332Z" fill="#FFD7FD"/>
<path d="M108.41 51.7504L108.369 51.7556C108.176 51.7832 107.995 51.6468 107.968 51.4541L107.756 49.9453C107.728 49.7526 107.864 49.5717 108.057 49.5442L108.098 49.539C108.29 49.5114 108.471 49.6478 108.499 49.8405L108.711 51.3493C108.739 51.542 108.602 51.7229 108.41 51.7504ZM107.946 48.9819L109.894 48.8442C109.894 48.8442 110.389 48.8062 110.751 48.4732C110.976 48.2648 111.151 47.9423 111.114 47.4377C111.021 46.1242 109.707 46.2173 109.707 46.2173L109.179 46.2553L108.394 46.3103L107.761 46.3549L107.946 48.9819Z" fill="#FFD7FD"/>
<path d="M107.97 48.9779L107.921 48.9818C107.692 48.9976 107.491 48.8232 107.474 48.5938L107.347 46.8006C107.331 46.5712 107.506 46.3706 107.735 46.3536L107.783 46.3496C108.013 46.3339 108.213 46.5082 108.23 46.7376L108.358 48.5309C108.373 48.7603 108.199 48.9622 107.97 48.9779ZM107.976 45.7453L107.897 45.7479C107.662 45.7545 107.462 45.567 107.456 45.3298L107.402 43.3936C107.395 43.1577 107.583 42.9584 107.82 42.9519L107.899 42.9493C108.135 42.9427 108.334 43.1302 108.341 43.3674L108.394 45.3036C108.401 45.5395 108.213 45.7388 107.976 45.7453Z" fill="#FFD7FD"/>
<path d="M109.31 45.711C109.31 45.711 109.779 45.6887 110.166 45.4042C110.446 45.1984 110.685 44.8602 110.668 44.2743C110.629 42.8769 109.231 42.9162 109.231 42.9162L108.533 42.9359L107.859 42.9542L107.937 45.7503L109.31 45.711ZM108.791 42.401C108.791 42.401 109.26 42.4246 109.673 42.1795C109.972 42.0025 110.242 41.6879 110.283 41.1033C110.38 39.7085 108.985 39.6115 108.985 39.6115L108.287 39.563L108.093 39.5499L107.899 42.3394L108.791 42.401Z" fill="#FFD7FD"/>
<path d="M107.937 42.3415L107.858 42.3362C107.622 42.3192 107.443 42.1134 107.458 41.8774L107.592 39.9452C107.609 39.7092 107.815 39.5297 108.051 39.5454L108.13 39.5506C108.365 39.5677 108.545 39.7735 108.529 40.0094L108.396 41.9416C108.379 42.1789 108.173 42.3585 107.937 42.3415Z" fill="#FFD7FD"/>
<path d="M119.16 57.6765H114.189C113.65 57.6765 113.425 57.9426 112.619 59.264L106.874 68.0454L89.3378 64.0617V77.3394H110.79C112.537 77.3394 114.11 76.9369 114.768 75.318L120.842 60.078C121.399 58.3319 120.401 57.6765 119.16 57.6765Z" fill="#8B6D8C"/>
<g filter="url(#filter0_d_170_3696)">
<path d="M62.4665 97.0063C78.7557 97.0063 91.9608 83.8012 91.9608 67.512C91.9608 51.2227 78.7557 38.0177 62.4665 38.0177C46.1772 38.0177 32.9722 51.2227 32.9722 67.512C32.9722 83.8012 46.1772 97.0063 62.4665 97.0063Z" fill="#404040"/>
<path d="M62.2015 60.0641C60.3051 60.0641 58.4865 60.8174 57.1456 62.1583C55.8047 63.4992 55.0516 65.3179 55.0516 67.2142V82.1435C55.1429 82.926 55.4706 83.6621 55.9911 84.2536C56.5116 84.845 57.2001 85.2637 57.9647 85.4537C59.4927 85.8254 61.0592 86.0143 62.6318 86.0164C67.5234 85.9647 72.2004 83.9985 75.6595 80.5395C79.1185 77.0804 81.0847 72.4037 81.1364 67.5121C81.1368 65.9394 80.9477 64.3723 80.5735 62.8447C80.3878 62.0779 79.9705 61.3869 79.3782 60.8657C78.7859 60.3445 78.0474 60.0183 77.2633 59.9316L62.2015 60.0641Z" fill="#FF5E69"/>
<path d="M43.9292 67.1811C43.885 68.9348 44.0967 70.6856 44.5579 72.3782C44.751 73.1259 45.1747 73.7938 45.769 74.287C46.3632 74.7802 47.0977 75.0736 47.8682 75.1256H62.7643C64.6606 75.1256 66.4793 74.3724 67.8202 73.0315C69.1611 71.6906 69.9145 69.8718 69.9145 67.9755V53.0794C69.8614 52.2271 69.537 51.4141 68.9892 50.759C68.4413 50.104 67.6984 49.6412 66.869 49.4382C65.3172 49.077 63.7287 48.8993 62.1355 48.9085C57.3327 49.0267 52.7603 50.9918 49.3693 54.3951C45.9784 57.7984 44.0299 62.3779 43.9292 67.1811Z" fill="#0089B8"/>
<path d="M62.2015 60.064C60.3051 60.064 58.4865 60.8173 57.1456 62.1582C55.8047 63.4991 55.0516 65.3178 55.0516 67.2141V75.0594H62.8306C64.727 75.0594 66.5456 74.306 67.8865 72.9651C69.2274 71.6242 69.9809 69.8056 69.9809 67.9092V59.9978L62.2015 60.064Z" fill="white"/>
</g>
<path d="M45.1902 41.652C44.6436 40.3897 44.0157 39.0198 42.5685 39.0198H41.2577C42.7049 39.0198 43.8794 37.8414 43.8794 36.3876V14.0087C43.8794 12.5549 42.7049 11.3765 41.2577 11.3765H7.17538C5.72819 11.3765 4.55367 12.5549 4.55367 14.0087V36.3876C4.55367 37.8414 5.72819 39.0198 7.17538 39.0198H5.86452C4.41734 39.0198 3.67932 40.3359 3.24281 41.652L0.621094 48.0687C0.621094 49.5237 1.79562 50.7022 3.24281 50.7022H45.1902C46.6374 50.7022 47.812 49.5237 47.812 48.07L45.1902 41.652Z" fill="#CCD6DD"/>
<path d="M0.631226 48.1775L0.639091 48.2522L0.861936 49.1593C1.27617 50.0664 2.18328 50.7009 3.24245 50.7009H45.1899C46.6004 50.7009 47.7421 49.5801 47.8011 48.1775H0.631226Z" fill="#9AAAB4"/>
<path d="M41.258 35.0682C41.258 35.7957 40.672 36.3843 39.9471 36.3843H8.48652C7.76292 36.3843 7.17566 35.7957 7.17566 35.0682V15.324C7.17566 14.5965 7.76292 14.0079 8.48652 14.0079H39.9471C40.672 14.0079 41.258 14.5978 41.258 15.324V35.0682Z" fill="#867F9B"/>
<path d="M43.7561 44.2051L42.7599 41.354C42.4466 40.751 41.9275 40.2568 41.2026 40.2568H7.31953C6.59594 40.2568 6.1319 40.7917 5.80418 41.6149L4.90231 44.2064C4.61524 44.9877 5.48958 45.5226 6.21317 45.5226H16.1468C16.1468 45.5226 17.3751 45.4609 17.5927 44.7255C17.8444 43.8761 18.1367 42.5967 18.1997 42.3712C18.2967 42.0252 18.7083 41.6752 19.3217 41.6752H30.5663C31.2217 41.6752 31.5442 42.0068 31.6294 42.4171C31.6844 42.6845 32.0384 43.9128 32.2035 44.7531C32.349 45.5016 33.8041 45.5212 33.8041 45.5212H42.4479C43.1702 45.5212 44.0432 44.9038 43.7561 44.2051Z" fill="#AEBBC1"/>
<path d="M29.9505 46.9193H19.7507C19.2591 46.9193 19.0455 46.4697 19.1163 46.0345C19.187 45.6006 19.5868 43.6841 19.6183 43.4613C19.6485 43.2371 19.9775 42.9697 20.3052 42.9697H29.5009C29.8902 42.9697 30.1432 43.1834 30.2218 43.6107C30.2992 44.0394 30.6177 45.7619 30.6426 46.1551C30.6675 46.5497 30.4211 46.9193 29.9505 46.9193Z" fill="#9AAAB4"/>
<circle cx="15.0442" cy="62.9592" r="15.0442" fill="white"/>
<path fill-rule="evenodd" clip-rule="evenodd" d="M11.4069 77.5543C19.4761 79.563 27.6339 74.6447 29.6414 66.5902C31.6439 58.5309 26.7335 50.3484 18.6593 48.3643C10.6098 46.3556 2.45689 51.274 0.449419 59.3284C-1.55805 67.3829 3.35238 75.5407 11.4069 77.5543ZM18.8279 57.2359C20.9174 57.9449 22.4415 58.9936 22.1711 61.0025C21.9646 62.4648 21.1681 63.1787 20.0668 63.4298C21.5713 64.2028 22.3235 65.3746 21.6352 67.4278C20.7797 70.0029 18.6706 70.2343 15.8486 69.7321L15.1996 72.4745L13.5477 72.0757L14.1967 69.3776C13.7788 69.2742 13.3412 69.1658 12.8791 69.0427L12.2301 71.7606L10.5782 71.3618L11.2272 68.6193C11.0001 68.5535 10.7639 68.4967 10.5241 68.4391C10.3694 68.402 10.2132 68.3644 10.0571 68.3239L7.90367 67.8217L8.68538 65.9162C8.68538 65.9162 9.9194 66.2314 9.89973 66.2117C10.357 66.3151 10.5684 66.0196 10.6519 65.8128L11.6549 61.48C11.6868 61.4899 11.7127 61.4948 11.7385 61.4997C11.7643 61.5047 11.7901 61.5096 11.822 61.5194C11.7807 61.4908 11.7414 61.4806 11.7068 61.4717C11.688 61.4669 11.6705 61.4624 11.6549 61.4554L12.3874 58.3585C12.412 58.0237 12.2842 57.5854 11.6156 57.418C11.6598 57.3934 10.4258 57.1226 10.4258 57.1226L10.8437 55.3649L13.12 55.9114C13.297 55.9533 13.4752 55.9902 13.6534 56.0271C13.8316 56.064 14.0098 56.101 14.1868 56.1428L14.8358 53.425L16.5074 53.8238L15.8781 56.4826C16.3156 56.5712 16.7581 56.6746 17.1957 56.778L17.825 54.1192L19.4769 54.518L18.8279 57.2359ZM13.6856 67.1221C15.0138 67.4633 18.0089 68.2326 18.4543 66.3347C18.9025 64.4116 16.0947 63.8062 14.6858 63.5024C14.5185 63.4663 14.3708 63.4345 14.2507 63.4052L13.3953 67.0487C13.4794 67.0692 13.5769 67.0942 13.6856 67.1221ZM14.8753 61.7938C15.9832 62.0802 18.5048 62.7322 18.9115 61.0025C19.324 59.2663 16.9707 58.7622 15.8068 58.5129C15.6668 58.4829 15.5441 58.4566 15.4454 58.4323L14.649 61.7361C14.7152 61.7524 14.7912 61.772 14.8753 61.7938Z" fill="#DD87DA"/>
<path d="M33.7239 26.7665C33.7239 31.6459 29.7658 35.604 24.8864 35.604C20.0059 35.604 16.049 31.6459 16.049 26.7665C16.049 21.886 20.0059 17.9291 24.8864 17.9291C29.7658 17.9291 33.7239 21.886 33.7239 26.7665Z" fill="#FFBAFC"/>
<path d="M29.2275 26.8381C29.1447 26.7492 29.0209 26.7437 28.932 26.8221C28.9138 26.8381 27.1076 28.4239 24.8856 28.4239C22.669 28.4239 20.8573 26.8381 20.8391 26.8221C20.7496 26.7437 20.6265 26.7503 20.5436 26.8381C20.4613 26.9265 20.4431 27.0723 20.5 27.185C20.5596 27.3037 21.9963 30.0809 24.8856 30.0809C27.7749 30.0809 29.2121 27.3037 29.2712 27.185C29.328 27.0718 29.3098 26.9265 29.2275 26.8381Z" fill="#C68DC9"/>
<path d="M22.3414 30.7196L21.4913 29.4939C21.4913 29.4939 21.1914 29.0151 20.712 29.3144C20.2331 29.6132 20.533 30.0927 20.533 30.0927L21.504 31.9596C21.504 31.9596 21.5835 32.3838 20.997 31.9093C20.7412 31.7027 20.8881 31.8193 20.8881 31.8193L20.6451 31.6199L17.6122 29.1299C17.6122 29.1299 17.2206 28.7168 16.8616 29.1531C16.5037 29.59 16.9848 29.8938 16.9848 29.8938L19.8531 32.2501C19.7868 32.3164 19.5868 32.5451 19.5217 32.6163L16.4523 30.0976C16.4523 30.0976 16.0601 29.6839 15.7022 30.1203C15.3432 30.5572 15.8248 30.861 15.8248 30.861L18.8931 33.3808C18.8362 33.4581 18.6926 33.6437 18.6396 33.7199L15.9927 31.547C15.9927 31.547 15.6006 31.1338 15.2427 31.5702C14.8831 32.0071 15.3653 32.3114 15.3653 32.3114L18.1789 34.6224C18.1436 34.7207 17.9784 34.9792 17.9525 35.0753L15.9243 33.4117C15.9243 33.4117 15.5326 32.9963 15.1747 33.4343C14.8157 33.8712 15.2974 34.175 15.2974 34.175L18.5727 36.8638L18.7909 37.0439C20.238 38.232 22.375 38.0221 23.5631 36.5749C24.6518 35.2477 24.5667 33.3421 23.4306 32.1181C23.0279 31.6862 22.6794 31.2051 22.3414 30.7196ZM34.5978 33.4349C34.2399 32.9969 33.8483 33.4122 33.8483 33.4122L31.8201 35.0759C31.7941 34.9798 31.629 34.7207 31.5936 34.623L34.4072 32.312C34.4072 32.312 34.8894 32.0076 34.5304 31.5707C34.1725 31.1344 33.7803 31.5475 33.7803 31.5475L31.1335 33.7204C31.0805 33.6437 30.9363 33.4581 30.88 33.3813L33.9482 30.8615C33.9482 30.8615 34.4304 30.5577 34.0714 30.1208C33.7135 29.6845 33.3219 30.0982 33.3219 30.0982L30.252 32.6169C30.1874 32.5456 29.9874 32.3169 29.9206 32.2507L32.7889 29.8944C32.7889 29.8944 33.2694 29.5906 32.9121 29.1537C32.553 28.7173 32.1614 29.1305 32.1614 29.1305L29.1285 31.6204L28.886 31.8198C28.886 31.8198 29.4329 31.3553 28.7772 31.9099C28.1211 32.4644 28.2702 31.9601 28.2702 31.9601L29.2412 30.0932C29.2412 30.0932 29.5411 29.6138 29.0622 29.315C28.5823 29.0156 28.2829 29.4945 28.2829 29.4945L27.4334 30.7201C27.0948 31.2056 26.7463 31.6867 26.3431 32.1192C25.2063 33.3437 25.1213 35.2488 26.2111 36.576C27.3986 38.0232 29.5361 38.2331 30.9833 37.045L31.202 36.8649L34.4774 34.1761C34.4746 34.1756 34.9563 33.8718 34.5978 33.4349Z" fill="#ED9DEA"/>
<path d="M30.2301 23.9949C30.202 23.9275 29.5204 22.3473 28.1196 22.3473C26.72 22.3473 26.0384 23.9275 26.0102 23.9949C25.9661 24.0988 25.9948 24.2192 26.0782 24.291C26.1605 24.3617 26.2798 24.3639 26.3671 24.2976C26.3726 24.2926 26.9641 23.8469 28.1196 23.8469C29.2679 23.8469 29.859 24.2871 29.8728 24.2976C29.9142 24.3302 29.9639 24.3468 30.0136 24.3468C30.0661 24.3468 30.118 24.328 30.1611 24.2921C30.2456 24.2208 30.2743 24.0988 30.2301 23.9949ZM24.1544 23.9949C24.1257 23.9275 23.4446 22.3473 22.0439 22.3473C20.6442 22.3473 19.9627 23.9275 19.9339 23.9949C19.8903 24.0988 19.9185 24.2192 20.0024 24.291C20.0853 24.3617 20.2046 24.3639 20.2913 24.2976C20.2974 24.2926 20.8884 23.8469 22.0439 23.8469C23.1927 23.8469 23.7832 24.2871 23.7965 24.2976C23.8384 24.3302 23.8876 24.3468 23.9373 24.3468C23.9898 24.3468 24.0417 24.328 24.0848 24.2921C24.1698 24.2208 24.198 24.0988 24.1544 23.9949Z" fill="#C68DC9"/>
<path d="M21.1193 32C21.1193 32 19.6871 33.8305 21.3867 36.1205C21.5038 36.2779 21.8009 36.2011 21.6744 36.0166C21.5363 35.8156 20.1555 33.8647 21.4535 32.1188C21.4535 32.1188 21.2431 32.0928 21.1193 32ZM28.6218 32.0541C28.6218 32.0541 30.0546 33.8846 28.3544 36.1746C28.2373 36.332 27.9402 36.2552 28.0667 36.0708C28.2048 35.8697 29.5856 33.9188 28.2876 32.1729C28.2871 32.1734 28.4981 32.1475 28.6218 32.0541Z" fill="#C68DC9"/>
<path d="M47.3804 117.977V111.423C47.3804 107.079 43.8594 103.558 39.5153 103.558H18.5415C14.1987 103.558 10.6764 107.079 10.6764 111.423V117.977H47.3804Z" fill="#A680A8"/>
<path d="M23.3126 103.694C23.3126 104.866 26.4062 106.307 29.0279 106.307C31.6496 106.307 34.742 104.866 34.742 103.695V98.6919H23.3113V103.694H23.3126Z" fill="#DCCDE4"/>
<path d="M23.3025 100.898C24.8965 102.7 26.8732 103.187 29.023 103.187C31.1715 103.187 33.147 102.698 34.7423 100.898V96.3223H23.3011V100.898H23.3025Z" fill="#DDCCE0" fill-opacity="0.3" style="mix-blend-mode:multiply"/>
<path d="M20.4343 87.7416C20.4343 89.6397 19.4722 91.1787 18.2858 91.1787C17.0995 91.1787 16.1373 89.6397 16.1373 87.7416C16.1373 85.8435 17.0995 84.3032 18.2858 84.3032C19.4722 84.3019 20.4343 85.8422 20.4343 87.7416ZM41.918 87.7416C41.918 89.6397 40.9571 91.1787 39.7695 91.1787C38.5831 91.1787 37.621 89.6397 37.621 87.7416C37.621 85.8435 38.5818 84.3032 39.7695 84.3032C40.9571 84.3019 41.918 85.8422 41.918 87.7416Z" fill="#DCCDE4"/>
<path d="M17.8556 89.086C17.8556 81.7597 22.8578 75.8188 29.028 75.8188C35.1982 75.8188 40.1992 81.7597 40.1992 89.086C40.1992 96.4124 35.1982 102.353 29.028 102.353C22.8591 102.352 17.8556 96.4124 17.8556 89.086Z" fill="#DCCDE4"/>
<path d="M29.0289 98.0548C25.4188 98.0548 24.3098 97.1306 24.125 96.9432C23.7894 96.6076 23.7894 96.0636 24.125 95.728C24.4501 95.4029 24.9718 95.3937 25.3074 95.6979C25.3755 95.7464 26.2525 96.3363 29.0289 96.3363C31.9128 96.3363 32.7465 95.7005 32.7543 95.6939C33.0899 95.3597 33.6156 95.3754 33.9512 95.7136C34.2867 96.0492 34.2684 96.6089 33.9328 96.9432C33.748 97.1306 32.639 98.0548 29.0289 98.0548Z" fill="#C68DC9"/>
<path d="M29.0286 70.7854C36.4324 70.7854 41.0597 76.8783 41.0597 81.4309C41.0597 85.9835 40.1342 87.8056 39.2088 85.9835L37.3578 82.3419C37.3578 82.3419 31.8063 82.3419 29.9554 80.5198C29.9554 80.5198 32.7318 85.9835 27.179 80.5198C27.179 80.5198 28.1045 84.1627 22.5517 79.6101C22.5517 79.6101 19.7753 81.4309 18.8498 85.9835C18.5929 87.2471 16.9989 85.9835 16.9989 81.4309C16.9976 76.8783 20.6995 70.7854 29.0286 70.7854Z" fill="#F4EBFA"/>
<path d="M23.7841 89.1368C23.0632 89.1368 22.4733 88.5469 22.4733 87.8259V86.5151C22.4733 85.7941 23.0632 85.2042 23.7841 85.2042C24.5051 85.2042 25.095 85.7941 25.095 86.5151V87.8259C25.095 88.5469 24.5051 89.1368 23.7841 89.1368ZM34.271 89.1368C33.55 89.1368 32.9601 88.5469 32.9601 87.8259V86.5151C32.9601 85.7941 33.55 85.2042 34.271 85.2042C34.992 85.2042 35.5818 85.7941 35.5818 86.5151V87.8259C35.5818 88.5469 34.992 89.1368 34.271 89.1368Z" fill="#867F9B"/>
<path d="M30.0119 92.7418H28.0456C27.5043 92.7418 27.0625 92.3 27.0625 91.7587C27.0625 91.2173 27.5043 90.7755 28.0456 90.7755H30.0119C30.5533 90.7755 30.9951 91.2173 30.9951 91.7587C30.9951 92.3 30.5533 92.7418 30.0119 92.7418Z" fill="#BBAFCA"/>
<path d="M44.7581 116.665C44.7581 117.39 44.1722 117.976 43.4473 117.976H30.3387C29.6138 117.976 29.0278 117.39 29.0278 116.665C29.0278 115.941 29.6138 115.355 30.3387 115.355H43.4473C44.1722 115.355 44.7581 115.941 44.7581 116.665Z" fill="#E1E8ED"/>
<path d="M28.0311 99.625H6.42687C4.42912 99.625 1.8677 100.636 3.17856 104.254L7.20551 115.363C7.20683 115.363 7.72593 117.977 10.6754 117.977H36.8925L31.6491 103.243C31.0749 101.51 30.0302 99.625 28.0311 99.625Z" fill="#E1E8ED"/>
<path d="M26.7208 99.625H5.11656C3.11882 99.625 0.5574 100.636 1.86826 104.254L5.89521 115.363C5.89652 115.363 6.41562 117.977 9.36505 117.977H35.5822L30.3388 103.243C29.7646 101.51 28.7199 99.625 26.7208 99.625Z" fill="#99AAB5"/>
<path d="M19.8761 109.171C20.563 111.232 20.0059 113.274 18.6321 113.732C17.2583 114.19 15.5883 112.891 14.9014 110.831C14.2145 108.77 14.7716 106.728 16.1454 106.27C17.5192 105.813 19.1905 107.11 19.8761 109.171ZM26.4055 103.229H5.43175C4.88906 103.229 4.44861 102.789 4.44861 102.246C4.44861 101.703 4.88906 101.263 5.43175 101.263H26.4055C26.9482 101.263 27.3886 101.703 27.3886 102.246C27.3886 102.789 26.9482 103.229 26.4055 103.229Z" fill="#E1E8ED"/>
<path d="M98.9662 49.0332C98.9662 46.5673 96.9672 44.5684 94.5018 44.5684C93.005 44.5684 91.6843 45.3072 90.874 46.4366C90.0636 45.3072 88.7429 44.5684 87.2466 44.5684C84.7807 44.5684 82.7817 46.5669 82.7817 49.0332C82.7817 49.3825 82.8261 49.721 82.9021 50.0472C83.522 53.899 87.8045 57.9625 90.874 59.0782C93.943 57.9625 98.2259 53.899 98.8449 50.0476C98.9218 49.7214 98.9662 49.383 98.9662 49.0332Z" fill="#FFBAFC"/>
<path d="M119.487 113.189C119.487 111.991 118.515 111.019 117.317 111.019C116.59 111.019 115.948 111.378 115.554 111.927C115.16 111.378 114.519 111.019 113.791 111.019C112.593 111.019 111.622 111.991 111.622 113.189C111.622 113.359 111.643 113.523 111.68 113.682C111.981 115.554 114.062 117.529 115.554 118.071C117.046 117.529 119.127 115.554 119.428 113.682C119.465 113.524 119.487 113.359 119.487 113.189Z" fill="#ED9DEA"/>
<path d="M10.686 88.4595C10.686 87.0614 9.55267 85.9281 8.15485 85.9281C7.30626 85.9281 6.55745 86.347 6.09801 86.9873C5.63857 86.347 4.88977 85.9281 4.04143 85.9281C2.64335 85.9281 1.51001 87.0612 1.51001 88.4595C1.51001 88.6576 1.53515 88.8494 1.57825 89.0344C1.92969 91.2182 4.35773 93.5221 6.09801 94.1547C7.83804 93.5221 10.2663 91.2182 10.6173 89.0347C10.6609 88.8497 10.686 88.6578 10.686 88.4595Z" fill="#FFBAFC"/>
<path d="M108.42 99.649C105.035 94.7188 98.0375 101.974 85.2672 103.449C80.5389 103.994 76.2786 107.943 70.7861 107.567C68.5341 107.412 65.3893 100.932 63.035 101.965C61.8238 102.497 61.268 104.274 62.5133 105.608L76.3402 122.107C76.3402 122.107 77.0429 122.917 79.4103 122.356C79.9936 122.527 88.7632 119.013 93.8336 111.978C95.0475 110.293 96.4947 108.891 97.993 107.719C102.858 104.122 108.146 102.868 108.146 102.868C108.822 102.31 108.981 101.716 108.944 101.201C108.988 100.341 108.42 99.649 108.42 99.649Z" fill="#A680A8"/>
<path d="M76.7937 91.775C71.8348 98.657 63.1503 101.917 63.1503 101.917C61.5301 103.29 62.8986 104.907 62.8986 104.907L76.5814 121.108C76.5814 121.108 77.2656 121.917 79.5701 121.356C79.5701 121.356 88.2546 118.102 93.2122 111.22C98.3233 104.129 107.54 101.89 107.54 101.89C109.159 100.517 107.792 98.8969 107.792 98.8969L94.1089 82.6987C94.1089 82.6987 93.4246 81.8885 91.1201 82.447C91.1201 82.447 81.9048 84.6807 76.7937 91.775Z" fill="#BBAFCA"/>
<path d="M90.5892 103.87C94.571 103.87 97.7989 100.642 97.7989 96.6602C97.7989 92.6783 94.571 89.4504 90.5892 89.4504C86.6074 89.4504 83.3795 92.6783 83.3795 96.6602C83.3795 100.642 86.6074 103.87 90.5892 103.87Z" fill="#A680A8"/>
<path d="M78.624 120.159C77.4691 120.159 77.0457 119.729 76.9881 119.664L64.6542 105.266C64.6306 105.239 64.0053 104.523 64.0814 103.613C64.1272 103.061 64.413 102.57 64.9295 102.152L65.0121 102.102C65.092 102.07 73.0909 98.7829 77.574 92.8407L77.8362 93.0374L77.574 92.8407C82.3167 86.5539 90.4978 83.8561 90.579 83.8299C92.8665 83.2977 93.615 84.058 93.6949 84.1471L105.866 98.6242C105.889 98.6478 106.512 99.3662 106.436 100.277C106.391 100.828 106.105 101.319 105.588 101.738L105.459 101.802C105.379 101.821 97.4243 103.798 92.8167 109.904C88.23 115.987 80.2233 119.922 80.1433 119.96C79.5351 120.104 79.0343 120.159 78.624 120.159ZM77.4823 119.232C77.4836 119.232 78.0748 119.778 79.927 119.348C79.9375 119.333 87.8039 115.465 92.2962 109.511C96.8017 103.54 104.389 101.407 105.23 101.186C105.567 100.896 105.754 100.575 105.784 100.23C105.839 99.6008 105.375 99.0594 105.371 99.0542L93.1994 84.5758C93.1968 84.5758 92.6095 84.0318 90.756 84.4617C90.7022 84.4801 82.7139 87.1175 78.0984 93.2353C73.686 99.083 65.9873 102.405 65.307 102.691C64.9557 102.985 64.7643 103.314 64.7342 103.667C64.6817 104.291 65.1432 104.83 65.1471 104.835L77.4823 119.232Z" fill="#A680A8"/>
<path d="M89.6404 107.361L89.6326 115.148L90.2841 115.921C91.5543 114.762 92.7747 113.459 93.8299 111.994C94.9245 110.476 96.196 109.177 97.537 108.08L96.9039 107.326L89.6404 107.361Z" fill="#BBAFCA"/>
<path d="M96.8788 107.301L80.4852 87.8834C79.1534 88.9793 77.874 90.2574 76.786 91.7688C75.7229 93.2448 74.4854 94.5439 73.2008 95.6896L75.1173 97.9587L75.116 97.96L89.6337 115.151C90.9184 114.004 92.1414 112.691 93.2058 111.214C94.2938 109.704 95.5719 108.427 96.9024 107.331L96.8775 107.301H96.8788Z" fill="#DCCDE4"/>
<path d="M80.7307 107.871C78.6897 105.454 74.3691 109.376 73.1369 107.917C72.5404 107.21 72.9245 106.294 73.7084 105.633C75.0258 104.519 75.9762 105.168 76.5726 104.663C76.996 104.307 76.9738 103.87 76.7221 103.57C76.1374 102.879 74.6431 103.239 73.4816 103.911L72.9167 103.242C72.564 102.825 71.9401 102.772 71.5232 103.124C71.1064 103.478 71.0539 104.099 71.4065 104.516L71.9912 105.21C71.1037 106.387 70.8022 107.949 71.8522 109.191C73.8133 111.511 78.1876 107.654 79.564 109.285C80.0412 109.851 79.9075 110.932 78.9033 111.778C77.3985 113.051 76.0352 112.455 75.423 112.971C75.1241 113.222 75.0704 113.699 75.3889 114.078C75.8962 114.677 77.5125 114.548 79.0659 113.581C79.0685 113.583 79.0685 113.586 79.0685 113.589L79.7069 114.344C80.0595 114.761 80.6848 114.812 81.1017 114.462C81.5198 114.108 81.5709 113.484 81.2183 113.067L80.5799 112.312C80.5734 112.304 80.5629 112.299 80.555 112.291C81.6024 111.009 81.9563 109.319 80.7307 107.871Z" fill="#5A4D5B" fill-opacity="0.9"/>
<path d="M104.295 121.023C104.307 121.012 104.32 121.004 104.331 120.995C104.421 120.906 104.49 120.804 104.569 120.705C104.624 120.637 104.685 120.572 104.737 120.502C104.782 120.437 104.82 120.37 104.862 120.303C106.724 117.436 105.505 112.575 101.82 108.889C98.1337 105.203 93.2718 103.984 90.4062 105.847C90.3381 105.887 90.2712 105.925 90.2057 105.973C90.1362 106.024 90.0693 106.085 90.0038 106.139C89.9068 106.219 89.8045 106.287 89.7141 106.378C89.7023 106.39 89.6944 106.403 89.6853 106.414C89.6708 106.429 89.6538 106.438 89.6381 106.454L89.6459 106.46C88.3351 107.852 88.3193 110.006 89.6381 111.326C90.9594 112.648 93.1118 112.629 94.5053 111.318L94.5197 111.334C94.4922 111.36 94.462 111.377 94.4358 111.404C93.0476 112.792 93.0148 115.006 94.3585 116.352C95.7034 117.696 97.9201 117.663 99.3069 116.275C99.3332 116.248 99.3502 116.218 99.3764 116.191L99.3908 116.207C98.08 117.599 98.0629 119.752 99.3843 121.074C100.704 122.392 102.857 122.377 104.249 121.066L104.257 121.074C104.27 121.055 104.28 121.038 104.295 121.023Z" fill="#FBF8FB"/>
<path d="M89.6409 111.382C90.8285 112.568 92.6834 112.665 94.0585 111.724C94.634 110.741 94.7991 109.806 94.7991 109.514C91.9061 111.672 89.3237 109.526 88.7456 108.242C88.5057 109.351 88.7967 110.536 89.6409 111.382ZM99.2089 116.416C99.5995 115.866 99.9023 115.335 100.044 114.976C98.2021 116.665 94.6812 115.428 93.6141 112.75C93.1448 113.996 93.3847 115.43 94.3626 116.408C95.6761 117.721 97.8154 117.711 99.2089 116.416ZM104.261 121.128L104.299 121.081C104.312 121.07 104.325 121.062 104.336 121.052C104.426 120.963 104.496 120.861 104.573 120.764C104.629 120.694 104.69 120.63 104.741 120.559C104.788 120.495 104.826 120.427 104.868 120.36C104.953 120.229 104.999 120.074 105.071 119.935C101.757 121.418 99.2836 118.902 98.5901 117.648C98.2034 118.85 98.4551 120.196 99.3884 121.131C100.707 122.451 102.86 122.435 104.253 121.123L104.261 121.128Z" fill="#F4EBFA"/>
<path d="M80.0449 94.6899L80.0816 94.6611C80.1721 94.572 80.2415 94.4697 80.3189 94.3727C80.3739 94.3045 80.4342 94.2403 80.4853 94.1695C80.5325 94.104 80.5706 94.0371 80.6125 93.9703C82.4739 91.1034 81.2535 86.2415 77.5687 82.5566C73.8826 78.8705 69.0219 77.6501 66.1551 79.5115C66.0882 79.5535 66.02 79.5915 65.9545 79.6387C65.8837 79.6898 65.8195 79.7501 65.7513 79.8052C65.6543 79.8838 65.5521 79.952 65.4629 80.0424C65.4511 80.0542 65.4433 80.0686 65.4341 80.0791C65.4197 80.0922 65.4013 80.104 65.3869 80.1184L65.3934 80.125C64.0826 81.5171 64.0669 83.6709 65.3869 84.9909C66.7069 86.3109 68.8607 86.2952 70.2528 84.9844L70.2672 84.9988C70.2397 85.0237 70.2095 85.042 70.1833 85.0682C68.7951 86.4564 68.7623 88.6705 70.1073 90.0167C71.4522 91.363 73.6676 91.3289 75.0558 89.9407C75.082 89.9145 75.099 89.8843 75.1252 89.8568L75.1397 89.8712C73.8288 91.2634 73.8118 93.4171 75.1331 94.7371C76.4531 96.0572 78.6056 96.0414 79.9977 94.7293L80.0043 94.7371C80.0187 94.7227 80.0305 94.7057 80.0449 94.6899Z" fill="#FBF8FB"/>
<path d="M65.385 84.9939C66.5727 86.1816 68.4275 86.2786 69.8026 85.3348C70.3781 84.3516 70.542 83.4183 70.542 83.126C67.6502 85.2823 65.0665 83.1351 64.4897 81.8518C64.2498 82.9621 64.5409 84.1484 65.385 84.9939ZM74.9556 90.025C75.3449 89.4758 75.6477 88.9475 75.788 88.5883C73.9449 90.2767 70.424 89.0392 69.3583 86.3612C68.889 87.6065 69.1289 89.0405 70.1054 90.0184C71.4215 91.3332 73.5622 91.3214 74.9556 90.025ZM80.0037 94.7402C80.0181 94.7257 80.0299 94.7087 80.0431 94.693L80.0798 94.6641C80.1702 94.575 80.2397 94.4727 80.317 94.3757C80.3721 94.3076 80.4324 94.2433 80.4835 94.1726C80.5307 94.107 80.5687 94.0402 80.6107 93.9733C80.6959 93.8422 80.7417 93.6862 80.8138 93.5473C77.5 95.0299 75.0264 92.5156 74.333 91.2611C73.9463 92.4632 74.1979 93.8094 75.1313 94.7428C76.4513 96.0628 78.6037 96.0471 79.9959 94.7349L80.0037 94.7402Z" fill="#F4EBFA"/>
<path d="M91.9601 13.1062C91.9601 3.93021 105.069 3.27314 105.069 13.1046C105.069 19.6588 93.9264 29.4941 105.069 36.0484" stroke="#BBAFCA" stroke-width="1.62547" stroke-dasharray="3.25 3.25"/>
<path d="M126.042 52.4348C135.218 58.3337 127.353 89.1388 113.589 89.7943C99.8247 90.4497 107.034 76.6857 115.555 84.5508C124.076 92.416 120.798 100.937 115.555 102.247" stroke="#BBAFCA" stroke-width="1.62547" stroke-dasharray="3.25 3.25"/>
<path d="M67.0538 116.667C58.5332 120.599 51.9786 131.741 38.87 129.775C28.3832 128.202 29.4758 123.876 29.6943 121.91" stroke="#BBAFCA" stroke-width="1.62547" stroke-dasharray="3.25 3.25"/>
<defs>
<filter id="filter0_d_170_3696" x="12.6538" y="19.7312" width="99.6252" height="99.6253" filterUnits="userSpaceOnUse" color-interpolation-filters="sRGB">
<feFlood flood-opacity="0" result="BackgroundImageFix"/>
<feColorMatrix in="SourceAlpha" type="matrix" values="0 0 0 0 0 0 0 0 0 0 0 0 0 0 0 0 0 0 127 0" result="hardAlpha"/>
<feOffset dy="2.03183"/>
<feGaussianBlur stdDeviation="10.1592"/>
<feComposite in2="hardAlpha" operator="out"/>
<feColorMatrix type="matrix" values="0 0 0 0 0.862745 0 0 0 0 0.803922 0 0 0 0 0.894118 0 0 0 0.5 0"/>
<feBlend mode="multiply" in2="BackgroundImageFix" result="effect1_dropShadow_170_3696"/>
<feBlend mode="normal" in="SourceGraphic" in2="effect1_dropShadow_170_3696" result="shape"/>
</filter>
</defs>
</svg>
