<svg width="128" height="32" viewBox="0 0 128 32" fill="none" xmlns="http://www.w3.org/2000/svg">
<path d="M14.9916 30.9832C23.2712 30.9832 29.9832 24.2712 29.9832 15.9916C29.9832 7.71196 23.2712 1 14.9916 1C6.71196 1 0 7.71196 0 15.9916C0 24.2712 6.71196 30.9832 14.9916 30.9832Z" fill="#323C3D"/>
<path d="M14.8568 12.2059C13.8929 12.2059 12.9686 12.5888 12.287 13.2704C11.6054 13.9519 11.2227 14.8763 11.2227 15.8402V23.4286C11.269 23.8263 11.4356 24.2005 11.7002 24.5011C11.9647 24.8017 12.3147 25.0145 12.7033 25.1111C13.48 25.3 14.2762 25.396 15.0756 25.3971C17.5619 25.3708 19.9391 24.3715 21.6974 22.6133C23.4556 20.855 24.4549 18.478 24.4812 15.9916C24.4814 15.1922 24.3853 14.3957 24.1951 13.6192C24.1007 13.2295 23.8886 12.8782 23.5876 12.6133C23.2865 12.3484 22.9111 12.1826 22.5126 12.1385L14.8568 12.2059Z" fill="#FF5E69"/>
<path d="M5.56943 15.8233C5.547 16.7147 5.65459 17.6046 5.88902 18.4649C5.98715 18.845 6.20254 19.1844 6.50458 19.4351C6.80662 19.6858 7.17995 19.835 7.57158 19.8614H15.1431C16.107 19.8614 17.0314 19.4785 17.7129 18.797C18.3945 18.1154 18.7775 17.191 18.7775 16.2271V8.65556C18.7505 8.22234 18.5856 7.80912 18.3071 7.47616C18.0287 7.1432 17.6511 6.90798 17.2294 6.80479C16.4407 6.62122 15.6333 6.53086 14.8235 6.53558C12.3823 6.59565 10.0582 7.59447 8.3346 9.32432C6.61102 11.0542 5.62065 13.3819 5.56943 15.8233V15.8233Z" fill="#0089B8"/>
<path d="M14.8568 12.2059C13.8929 12.2059 12.9686 12.5888 12.287 13.2704C11.6054 13.9519 11.2227 14.8763 11.2227 15.8402V19.8279H15.1766C16.1405 19.8279 17.0649 19.4449 17.7465 18.7634C18.428 18.0818 18.811 17.1574 18.811 16.1935V12.1722L14.8568 12.2059Z" fill="white"/>
<path d="M74.6433 8.13672H77.1861L84.0562 23.9178H81.1565L79.5728 20.1349H72.8053C72.6227 20.1349 72.444 20.1889 72.2916 20.29C72.1393 20.3912 72.0199 20.535 71.9484 20.7038L70.5829 23.9186H67.7728L74.6433 8.13672ZM78.2652 16.9886L75.87 11.4263L73.1936 17.6938H77.8032C77.8864 17.6937 77.9684 17.673 78.0417 17.6333C78.115 17.5937 78.1774 17.5364 78.2232 17.4666C78.269 17.3968 78.2968 17.3167 78.3041 17.2335C78.3115 17.1502 78.2981 17.0665 78.2652 16.9897V16.9886Z" fill="black"/>
<path d="M107.041 8.24878H109.785V14.7625H116.609C116.775 14.7625 116.934 14.6964 117.051 14.5787C117.169 14.4611 117.234 14.3015 117.234 14.1351V8.24878H119.978V23.9177H117.234V17.3143H110.411C110.245 17.3143 110.085 17.3807 109.968 17.4987C109.85 17.6168 109.784 17.777 109.784 17.944V23.9177H107.041V8.24878Z" fill="black"/>
<path d="M94.7342 24.4294C93.3026 24.4294 92.1024 23.9968 91.1668 23.1439C90.2467 22.292 89.6655 21.0805 89.4385 19.5424L89.4211 19.4268L92.1459 18.8242C92.1459 18.8242 92.46 20.5346 92.7246 20.8794L92.7268 20.8827C93.2099 21.5561 93.8971 21.8827 94.8283 21.8827C95.5527 21.8827 96.1613 21.6368 96.6367 21.1516C97.112 20.6665 97.356 20.0405 97.356 19.2924C97.3589 19.011 97.3168 18.7311 97.2312 18.4631C97.1469 18.2123 97.0159 17.9798 96.8452 17.7779C96.6446 17.5466 96.4117 17.3458 96.1536 17.1816C95.8263 16.9715 95.4817 16.79 95.1235 16.639L93.562 15.9868C91.3041 15.029 90.1593 13.6016 90.1593 11.7439C90.1593 10.4909 90.6431 9.42867 91.5986 8.58645C92.5541 7.74423 93.7436 7.31274 95.1538 7.31274C97.06 7.31274 98.5683 8.2546 99.6364 10.1127L99.6984 10.2202L97.5003 11.5272L97.4372 11.4161C97.0792 10.7927 96.736 10.3827 96.423 10.1983L96.4186 10.1957C96.0908 9.98534 95.6583 9.87867 95.1327 9.87867C94.488 9.87867 93.9473 10.0639 93.5251 10.4276C93.1025 10.7853 92.8977 11.2224 92.8977 11.7639C92.8977 12.4976 93.4646 13.1031 94.5825 13.5642L96.1979 14.2272C97.5265 14.7664 98.5145 15.4361 99.1334 16.2183C99.7523 17.0005 100.073 17.9831 100.073 19.1231C100.073 20.6461 99.5593 21.9231 98.5458 22.9183C97.5261 23.9213 96.2436 24.4294 94.7342 24.4294Z" fill="black"/>
<path d="M62.3223 23.9553L60.4416 8.146H57.8548H57.3846L52.682 15.6967L47.9794 8.146H47.5092H44.9229L43.0417 23.9553H45.6281L47.1062 11.5323L52.682 20.1801L58.2578 11.5323L59.7359 23.9553H62.3223Z" fill="black"/>
</svg>
