<svg width="118" height="118" viewBox="0 0 118 118" fill="none" xmlns="http://www.w3.org/2000/svg">
<g clip-path="url(#clip0_170_3610)">
<rect x="0.199951" y="0.199951" width="117.8" height="117.8" rx="58.9" fill="#DCCDE4"/>
<g clip-path="url(#clip1_170_3610)">
<g clip-path="url(#clip2_170_3610)">
<path d="M59.081 42.5186C67.2023 42.5186 73.7859 35.935 73.7859 27.8136C73.7859 19.6923 67.2023 13.1086 59.081 13.1086C50.9596 13.1086 44.376 19.6923 44.376 27.8136C44.376 35.935 50.9596 42.5186 59.081 42.5186Z" fill="#404040"/>
<path d="M58.9489 24.1003C58.0034 24.1003 57.0967 24.4759 56.4281 25.1445C55.7596 25.813 55.3842 26.7197 55.3842 27.6652V35.1085C55.4296 35.4986 55.5931 35.8656 55.8526 36.1605C56.1121 36.4554 56.4553 36.6641 56.8365 36.7588C57.5983 36.9442 58.3794 37.0383 59.1634 37.0394C61.6022 37.0136 63.934 36.0333 65.6586 34.3087C67.3832 32.5842 68.3635 30.2525 68.3892 27.8137C68.3894 27.0296 68.2952 26.2483 68.1086 25.4867C68.016 25.1043 67.808 24.7598 67.5127 24.5C67.2174 24.2401 66.8492 24.0775 66.4582 24.0343L58.9489 24.1003Z" fill="#FF5E69"/>
<path d="M49.8388 27.6486C49.8168 28.523 49.9223 29.3959 50.1523 30.2398C50.2485 30.6126 50.4598 30.9455 50.7561 31.1914C51.0523 31.4373 51.4185 31.5836 51.8027 31.6096H59.2294C60.1749 31.6096 61.0816 31.234 61.7501 30.5655C62.4187 29.8969 62.7943 28.9902 62.7943 28.0447V20.618C62.7678 20.193 62.6061 19.7877 62.333 19.4611C62.0598 19.1345 61.6894 18.9038 61.2759 18.8026C60.5022 18.6225 59.7102 18.5339 58.9159 18.5385C56.5214 18.5974 54.2417 19.5771 52.5511 21.2739C50.8605 22.9707 49.889 25.2539 49.8388 27.6486Z" fill="#0089B8"/>
<path d="M58.9489 24.1003C58.0034 24.1003 57.0967 24.4758 56.4281 25.1444C55.7596 25.8129 55.3842 26.7196 55.3842 27.6651V31.5765H59.2625C60.208 31.5765 61.1147 31.2009 61.7832 30.5324C62.4518 29.8638 62.8274 28.9571 62.8274 28.0117V24.0673L58.9489 24.1003Z" fill="white"/>
</g>
<path d="M96.7916 45.675C95.1041 43.217 91.6154 46.8344 85.2485 47.5696C82.8911 47.8415 80.7671 49.81 78.0287 49.6224C76.9059 49.5453 75.338 46.3148 74.1642 46.8298C73.5603 47.0951 73.2832 47.9807 73.9041 48.646L80.7978 56.8717C80.7978 56.8717 81.1481 57.2756 82.3284 56.9958C82.6192 57.0815 86.9915 55.3293 89.5195 51.8217C90.1247 50.9818 90.8462 50.2825 91.5932 49.6983C94.0185 47.9049 96.655 47.2801 96.655 47.2801C96.9922 47.0017 97.0713 46.7056 97.053 46.4488C97.0752 46.0201 96.7916 45.675 96.7916 45.675Z" fill="#5C913B"/>
<path d="M81.0242 41.7497C78.5518 45.1809 74.222 46.8062 74.222 46.8062C73.4142 47.4905 74.0965 48.297 74.0965 48.297L80.9183 56.3743C80.9183 56.3743 81.2595 56.7775 82.4084 56.4978C82.4084 56.4978 86.7382 54.8757 89.2099 51.4445C91.7582 47.9088 96.3533 46.7925 96.3533 46.7925C97.1604 46.1082 96.4788 45.3005 96.4788 45.3005L89.657 37.2245C89.657 37.2245 89.3158 36.8206 88.1669 37.099C88.1669 37.099 83.5724 38.2127 81.0242 41.7497Z" fill="#A7D28B"/>
<path d="M87.9014 47.7794C89.8866 47.7794 91.496 46.1701 91.496 44.1849C91.496 42.1997 89.8866 40.5903 87.9014 40.5903C85.9162 40.5903 84.3069 42.1997 84.3069 44.1849C84.3069 46.1701 85.9162 47.7794 87.9014 47.7794Z" fill="#77B255"/>
<path d="M81.9368 55.9033C81.3611 55.9033 81.15 55.6889 81.1212 55.6562L74.9719 48.4782C74.9601 48.4645 74.6484 48.1077 74.6863 47.6541C74.7092 47.379 74.8516 47.1339 75.1091 46.9254L75.1503 46.9006C75.1902 46.8849 79.1782 45.2458 81.4133 42.2832L81.544 42.3812L81.4133 42.2832C83.7779 39.1487 87.8567 37.8037 87.8972 37.7907C89.0377 37.5253 89.4109 37.9044 89.4507 37.9488L95.519 45.1667C95.5301 45.1784 95.8412 45.5366 95.8033 45.9908C95.7804 46.2653 95.6379 46.5104 95.3804 46.7189L95.3157 46.7509C95.2759 46.7607 91.3101 47.7463 89.0129 50.7905C86.7261 53.823 82.7342 55.785 82.6943 55.8039C82.3911 55.8758 82.1414 55.9033 81.9368 55.9033ZM81.3676 55.4412C81.3682 55.4412 81.663 55.7131 82.5865 55.4987C82.5917 55.4915 86.5137 53.5629 88.7534 50.5944C90.9997 47.6175 94.7824 46.5542 95.202 46.4437C95.37 46.2993 95.4628 46.1392 95.4778 45.9673C95.5053 45.6536 95.2739 45.3837 95.272 45.381L89.2037 38.1625C89.2024 38.1625 88.9096 37.8913 87.9855 38.1057C87.9587 38.1148 83.9759 39.4298 81.6748 42.4799C79.4749 45.3954 75.6366 47.0515 75.2974 47.194C75.1222 47.341 75.0268 47.5051 75.0118 47.6809C74.9856 47.992 75.2157 48.2606 75.2176 48.2632L81.3676 55.4412Z" fill="#5C913B"/>
<path d="M87.4287 49.5223L87.4248 53.4044L87.7496 53.79C88.3829 53.2123 88.9914 52.5626 89.5175 51.8319C90.0632 51.0751 90.6972 50.4275 91.3657 49.8804L91.0501 49.5046L87.4287 49.5223Z" fill="#FFAC33"/>
<path d="M91.0377 49.4902L82.8643 39.8091C82.2003 40.3555 81.5625 40.9927 81.02 41.7462C80.49 42.4821 79.873 43.1298 79.2325 43.701L80.188 44.8323L80.1874 44.833L87.4255 53.4037C88.066 52.8318 88.6758 52.1776 89.2064 51.441C89.7489 50.6881 90.3861 50.0516 91.0495 49.5052L91.037 49.4902H91.0377Z" fill="#FFE8B6"/>
<path d="M82.9866 49.7763C81.969 48.5712 79.8149 50.5266 79.2005 49.7992C78.9032 49.4469 79.0946 48.9901 79.4855 48.6607C80.1423 48.1052 80.6161 48.4287 80.9135 48.1771C81.1246 47.9993 81.1135 47.7817 80.988 47.632C80.6965 47.2876 79.9515 47.4673 79.3724 47.802L79.0907 47.4686C78.9149 47.2608 78.6038 47.234 78.396 47.4098C78.1882 47.5863 78.162 47.8961 78.3378 48.1039L78.6293 48.4496C78.1869 49.0365 78.0365 49.8156 78.56 50.4345C79.5378 51.5913 81.7187 49.6685 82.4049 50.4815C82.6428 50.7639 82.5761 51.3024 82.0755 51.7246C81.3252 52.3592 80.6455 52.0618 80.3403 52.3193C80.1913 52.4441 80.1645 52.682 80.3233 52.8709C80.5763 53.1696 81.3821 53.1055 82.1565 52.6232C82.1579 52.6245 82.1579 52.6258 82.1579 52.6271L82.4761 53.0036C82.6519 53.2114 82.9637 53.2369 83.1715 53.0624C83.38 52.886 83.4055 52.5749 83.2297 52.367L82.9114 51.9906C82.9081 51.9867 82.9029 51.984 82.899 51.9801C83.4212 51.341 83.5976 50.4985 82.9866 49.7763Z" fill="#5C913B"/>
<path d="M94.7356 56.333C94.7414 56.3278 94.748 56.3238 94.7539 56.3193C94.7983 56.2748 94.8329 56.2238 94.8721 56.1748C94.8996 56.1408 94.9303 56.1082 94.9558 56.0735C94.9787 56.0408 94.9976 56.0075 95.0185 55.9742C95.9466 54.5449 95.3388 52.1215 93.5016 50.2837C91.6638 48.4459 89.2398 47.8381 87.8111 48.7668C87.7772 48.787 87.7438 48.806 87.7112 48.8295C87.6765 48.855 87.6432 48.8857 87.6105 48.9125C87.5621 48.9524 87.5112 48.9864 87.4661 49.0315C87.4602 49.0374 87.4563 49.0439 87.4517 49.0498C87.4445 49.057 87.436 49.0615 87.4282 49.0694L87.4321 49.0726C86.7785 49.7667 86.7707 50.8405 87.4282 51.4986C88.0869 52.1574 89.1601 52.1483 89.8548 51.4947L89.862 51.5026C89.8483 51.5156 89.8332 51.5241 89.8202 51.5372C89.1281 52.2293 89.1117 53.3332 89.7816 54.0044C90.4522 54.6743 91.5573 54.6579 92.2488 53.9658C92.2619 53.9527 92.2703 53.9377 92.2834 53.924L92.2906 53.9318C91.6371 54.6259 91.6286 55.6997 92.2873 56.3585C92.9455 57.0159 94.0186 57.0081 94.7127 56.3545L94.7166 56.3585C94.7231 56.3493 94.7284 56.3408 94.7356 56.333Z" fill="white"/>
<path d="M87.4294 51.5255C88.0215 52.1169 88.9463 52.1653 89.6319 51.696C89.9188 51.2059 90.0011 50.7399 90.0011 50.5942C88.5588 51.6699 87.2712 50.6 86.983 49.9602C86.8634 50.5131 87.0085 51.1039 87.4294 51.5255ZM92.1997 54.0351C92.3945 53.7613 92.5454 53.4966 92.616 53.3175C91.6978 54.1593 89.9423 53.543 89.4103 52.2078C89.1764 52.8287 89.296 53.5436 89.7835 54.0312C90.4384 54.6861 91.505 54.6808 92.1997 54.0351ZM94.7185 56.3846L94.7375 56.3611C94.744 56.3559 94.7505 56.352 94.7558 56.3467C94.8008 56.3023 94.8355 56.2513 94.874 56.203C94.9022 56.1683 94.9322 56.1363 94.9577 56.101C94.9812 56.069 95.0002 56.035 95.0211 56.0017C95.0636 55.9363 95.0865 55.8592 95.1224 55.7899C93.4702 56.5291 92.237 55.2749 91.8912 54.6495C91.6984 55.2488 91.8239 55.92 92.2892 56.386C92.9467 57.0441 94.0199 57.0362 94.7146 56.382L94.7185 56.3846Z" fill="#CCD6DD"/>
<path d="M82.6447 43.2032L82.663 43.1888C82.7081 43.1444 82.7428 43.0934 82.7813 43.045C82.8088 43.0111 82.8388 42.979 82.8643 42.9437C82.8879 42.9111 82.9068 42.8777 82.9277 42.8444C83.8558 41.4151 83.2473 38.991 81.4102 37.1539C79.5724 35.3161 77.149 34.7076 75.7197 35.6357C75.6863 35.6566 75.6524 35.6756 75.6197 35.6991C75.5844 35.7246 75.5524 35.7546 75.5184 35.7821C75.47 35.8213 75.419 35.8553 75.3746 35.9004C75.3687 35.9063 75.3648 35.9135 75.3602 35.9187C75.353 35.9252 75.3439 35.9311 75.3367 35.9383L75.34 35.9416C74.6864 36.6356 74.6786 37.7094 75.3367 38.3676C75.9948 39.0257 77.0686 39.0178 77.7627 38.3643L77.7699 38.3715C77.7562 38.3839 77.7411 38.393 77.728 38.4061C77.0359 39.0982 77.0196 40.2021 77.6901 40.8733C78.3607 41.5445 79.4652 41.5275 80.1573 40.8354C80.1704 40.8223 80.1789 40.8073 80.1919 40.7935L80.1991 40.8007C79.5456 41.4948 79.5371 42.5686 80.1959 43.2267C80.854 43.8849 81.9271 43.877 82.6212 43.2228L82.6245 43.2267C82.6317 43.2195 82.6375 43.211 82.6447 43.2032Z" fill="white"/>
<path d="M75.3359 38.3676C75.928 38.9597 76.8528 39.0081 77.5384 38.5375C77.8253 38.0474 77.907 37.582 77.907 37.4363C76.4652 38.5114 75.1771 37.4409 74.8895 36.801C74.7699 37.3546 74.915 37.9461 75.3359 38.3676ZM80.1075 40.8759C80.3016 40.6021 80.4526 40.3387 80.5225 40.1596C79.6036 41.0014 77.8482 40.3845 77.3168 39.0493C77.0829 39.6701 77.2025 40.3851 77.6894 40.8727C78.3455 41.5282 79.4128 41.5223 80.1075 40.8759ZM82.6243 43.2268C82.6315 43.2196 82.6374 43.2111 82.6439 43.2032L82.6622 43.1889C82.7073 43.1444 82.742 43.0934 82.7805 43.0451C82.808 43.0111 82.8381 42.9791 82.8635 42.9438C82.8871 42.9111 82.906 42.8778 82.9269 42.8444C82.9694 42.7791 82.9923 42.7013 83.0282 42.632C81.3761 43.3712 80.1428 42.1177 79.7971 41.4922C79.6043 42.0915 79.7297 42.7627 80.1951 43.2281C80.8532 43.8862 81.9263 43.8784 82.6204 43.2242L82.6243 43.2268Z" fill="#CCD6DD"/>
<path d="M85.8514 16.4598C85.8514 15.2304 84.8548 14.2338 83.6256 14.2338C82.8794 14.2338 82.2209 14.6021 81.8169 15.1652C81.4129 14.6021 80.7544 14.2338 80.0084 14.2338C78.779 14.2338 77.7823 15.2302 77.7823 16.4598C77.7823 16.634 77.8045 16.8027 77.8424 16.9653C78.1514 18.8857 80.2865 20.9117 81.8169 21.468C83.347 20.9117 85.4824 18.8857 85.791 16.9656C85.8293 16.8029 85.8514 16.6342 85.8514 16.4598Z" fill="#DD2E44"/>
<path d="M70.3682 48.4431C70.3682 47.8457 69.8839 47.3613 69.2865 47.3613C68.9239 47.3613 68.6039 47.5403 68.4076 47.814C68.2112 47.5403 67.8912 47.3613 67.5287 47.3613C66.9312 47.3613 66.4469 47.8455 66.4469 48.4431C66.4469 48.5278 66.4576 48.6098 66.4761 48.6888C66.6262 49.622 67.6639 50.6066 68.4076 50.8769C69.1512 50.6066 70.1889 49.622 70.3388 48.6889C70.3575 48.6099 70.3682 48.5279 70.3682 48.4431Z" fill="#DD2E44"/>
<path d="M37.7405 27.7031C37.5769 27.1285 36.9784 26.7954 36.4039 26.959C36.0551 27.0583 35.7964 27.3182 35.6825 27.6351C35.4187 27.4257 35.0619 27.3412 34.7133 27.4405C34.1387 27.6042 33.8055 28.2025 33.9692 28.7772C33.9924 28.8586 34.0251 28.9345 34.0645 29.0055C34.4646 29.8619 35.7322 30.5246 36.5215 30.5809C37.1626 30.1172 37.891 28.8861 37.7796 27.9475C37.7759 27.8664 37.7637 27.7846 37.7405 27.7031Z" fill="#DD2E44"/>
</g>
<path d="M38.3058 57.5173C43.4394 57.5173 47.6011 53.3557 47.6011 48.222C47.6011 43.0884 43.4394 38.9268 38.3058 38.9268C33.1721 38.9268 29.0105 43.0884 29.0105 48.222C29.0105 53.3557 33.1721 57.5173 38.3058 57.5173Z" fill="#FFCC4D"/>
<path d="M37.2731 47.6834C37.0567 47.6834 36.8553 47.5465 36.783 47.3301C36.6782 47.0208 36.2573 46.1342 35.7239 46.1342C35.1755 46.1342 34.7489 47.0776 34.6647 47.3301C34.5744 47.6002 34.2836 47.7474 34.0115 47.6565C33.7409 47.5667 33.5947 47.2739 33.6851 47.0033C33.7497 46.8086 34.3585 45.1008 35.7244 45.1008C37.0903 45.1008 37.6986 46.8086 37.7637 47.0033C37.8541 47.2739 37.7079 47.5667 37.4373 47.6565C37.3826 47.6751 37.3273 47.6834 37.2731 47.6834ZM42.4371 47.6834C42.2208 47.6834 42.0194 47.5465 41.9476 47.3301C41.8428 47.0208 41.4214 46.1342 40.8879 46.1342C40.3395 46.1342 39.9124 47.0776 39.8283 47.3301C39.7379 47.6002 39.4482 47.7474 39.175 47.6565C38.9049 47.5667 38.7583 47.2739 38.8486 47.0033C38.9132 46.8086 39.522 45.1008 40.8874 45.1008C42.2528 45.1008 42.8616 46.8086 42.9262 47.0033C43.0165 47.2739 42.8704 47.5667 42.5998 47.6565C42.5461 47.6751 42.4914 47.6834 42.4371 47.6834ZM43.1265 49.6111C43.0346 49.528 42.8973 49.5228 42.7986 49.5961C42.7785 49.6111 40.7733 51.0937 38.3059 51.0937C35.8447 51.0937 33.8328 49.6111 33.8132 49.5961C33.7146 49.5228 33.5772 49.529 33.4853 49.6111C33.3939 49.6937 33.3732 49.8301 33.4367 49.9354C33.5033 50.0464 35.098 52.6429 38.3059 52.6429C41.5138 52.6429 43.109 50.0464 43.1751 49.9354C43.2386 49.8295 43.2185 49.6942 43.1265 49.6111Z" fill="#664500"/>
<path d="M39.9731 40.9644C39.9731 41.0883 39.9886 41.2081 40.0155 41.3238C40.2349 42.6886 41.7526 44.1284 42.8402 44.5239C43.7 44.2115 44.8263 43.2453 45.3695 42.18C44.2908 40.9199 42.881 39.9522 41.275 39.411C40.5355 39.5437 39.9731 40.1866 39.9731 40.9644ZM36.1073 53.9421C36.1367 53.8171 36.1538 53.687 36.1538 53.5527C36.1538 52.6062 35.3864 51.8388 34.4398 51.8388C33.8651 51.8388 33.3585 52.1223 33.0471 52.5561C32.7362 52.1228 32.2291 51.8388 31.6544 51.8388C31.0135 51.8388 30.4609 52.1946 30.1671 52.7156C31.109 54.4172 32.5684 55.7919 34.3335 56.6269C35.1788 55.9292 35.9503 54.9191 36.1073 53.9421ZM46.7235 52.1677C46.5779 51.6772 46.1286 51.3172 45.5906 51.3172C45.1924 51.3172 44.8413 51.5135 44.6259 51.814C44.4106 51.5135 44.0594 51.3172 43.6613 51.3172C43.0054 51.3172 42.4741 51.8486 42.4741 52.5044C42.4741 52.5974 42.4859 52.6872 42.5061 52.774C42.6646 53.7578 43.7186 54.7859 44.5247 55.1293C45.4418 54.3031 46.1932 53.2976 46.7235 52.1677Z" fill="#FFAC33"/>
<path d="M46.3745 40.6143C46.3745 39.7406 45.666 39.0326 44.7928 39.0326C44.2624 39.0326 43.7946 39.2944 43.5074 39.6946C43.2203 39.2944 42.7525 39.0326 42.2221 39.0326C41.3484 39.0326 40.6404 39.7406 40.6404 40.6143C40.6404 40.7383 40.6559 40.8581 40.6827 40.9738C40.9027 42.3386 42.4199 43.7783 43.5074 44.1739C44.595 43.7783 46.1122 42.3386 46.3317 40.9743C46.359 40.8581 46.3745 40.7383 46.3745 40.6143ZM35.3147 53.5962C35.3147 52.6497 34.5473 51.8823 33.6007 51.8823C33.026 51.8823 32.5194 52.1658 32.208 52.5996C31.8971 52.1658 31.39 51.8823 30.8153 51.8823C29.8687 51.8823 29.1013 52.6497 29.1013 53.5962C29.1013 53.7305 29.1184 53.8601 29.1473 53.9856C29.3853 55.4641 31.0291 57.0241 32.2075 57.4527C33.3859 57.0246 35.0296 55.4646 35.2677 53.9861C35.2977 53.8601 35.3147 53.73 35.3147 53.5962ZM47.5741 52.4183C47.5741 51.7625 47.0428 51.2311 46.3869 51.2311C45.9888 51.2311 45.6376 51.4273 45.4223 51.7279C45.2069 51.4273 44.8558 51.2311 44.4576 51.2311C43.8018 51.2311 43.2704 51.7625 43.2704 52.4183C43.2704 52.5113 43.2823 52.6011 43.3024 52.6879C43.4672 53.7119 44.6058 54.7927 45.4223 55.0891C46.2382 54.7927 47.3774 53.7119 47.5416 52.6879C47.5623 52.6011 47.5741 52.5113 47.5741 52.4183Z" fill="#DD2E44"/>
<path d="M18.856 70.4164C23.7182 70.4164 31.8202 72.8544 31.8202 83.4176C31.8202 93.9808 31.8202 96.4188 29.3891 96.4188C26.9569 96.4188 23.717 93.9808 18.8548 93.9808C13.9939 93.9808 10.8215 96.4188 8.32176 96.4188C5.61359 96.4188 5.89069 86.6679 5.89069 83.4176C5.89305 72.8544 13.9951 70.4164 18.856 70.4164Z" fill="#835600"/>
<path d="M26.0271 96.461H23.2561V92.6787H14.5739V96.461H11.8172C7.89407 96.461 3.52808 99.057 3.52808 102.993V111.435H34.3162V102.993C34.3162 99.057 29.9526 96.461 26.0271 96.461Z" fill="#9266CC"/>
<path d="M14.5658 94.2982C15.7772 95.6698 17.2787 96.0415 18.9105 96.0415C20.5434 96.0415 22.0449 95.671 23.2563 94.2982V90.8115H14.5658V94.2982Z" fill="#EEC2AD"/>
<path d="M9.13428 83.0616C9.13428 76.1335 13.4872 70.5176 18.8562 70.5176C24.2252 70.5176 28.5794 76.1335 28.5794 83.0616C28.5794 89.9885 24.2252 95.2767 18.8562 95.2767C13.4872 95.2767 9.13428 89.9897 9.13428 83.0616Z" fill="#F7DECE"/>
<path d="M18.8564 92.3551C16.9558 92.3551 15.9599 91.4122 15.8534 91.3042C15.536 90.9871 15.536 90.4729 15.8534 90.1558C16.1684 89.8411 16.6728 89.8387 16.9902 90.1475C17.0316 90.1855 17.645 90.7306 18.8564 90.7306C20.0867 90.7306 20.7001 90.1689 20.7238 90.1463C21.0471 89.8423 21.5563 89.8518 21.8641 90.1701C22.172 90.4895 22.172 90.9907 21.8594 91.3042C21.754 91.4122 20.7593 92.3551 18.8564 92.3551Z" fill="#DF1F32"/>
<path d="M6.75543 86.9598C6.73056 85.7722 6.70333 86.6937 6.70333 86.4075C6.70333 82.3438 9.13441 86.9942 9.13441 84.1001C9.13441 81.2037 10.7543 80.914 12.3743 79.2894C13.1854 78.4759 14.8053 76.8834 14.8053 76.8834C14.8053 76.8834 18.8564 79.3381 22.0974 79.3381C25.3373 79.3381 28.5795 80.971 28.5795 84.2213C28.5795 87.4716 31.0106 82.3402 31.0106 86.4028C31.0106 86.6926 30.9845 85.7722 30.9632 86.9598H31.8134C31.8217 84.5847 31.8217 84.6749 31.8217 83.1572C31.8217 72.594 23.7185 68.6609 18.8575 68.6609C13.9966 68.6609 5.89455 72.5287 5.89455 83.0919C5.89455 84.0336 5.87086 84.5847 5.90402 86.9598H6.75543Z" fill="#835600"/>
<path d="M14.9056 85.6372C14.355 85.6372 13.9038 85.1847 13.9038 84.6325V83.6291C13.9038 83.0768 14.355 82.6244 14.9056 82.6244C15.4562 82.6244 15.9086 83.0768 15.9086 83.6291V84.6325C15.9086 85.1847 15.4562 85.6372 14.9056 85.6372ZM22.9164 85.6372C22.3658 85.6372 21.9146 85.1847 21.9146 84.6325V83.6291C21.9146 83.0768 22.3658 82.6244 22.9164 82.6244C23.4671 82.6244 23.9182 83.0768 23.9182 83.6291V84.6325C23.9182 85.1847 23.4671 85.6372 22.9164 85.6372Z" fill="#662113"/>
<path d="M19.9137 88.7413H17.9113C17.6354 88.7413 17.4104 88.5156 17.4104 88.2389V88.0572C17.4104 87.7805 17.6342 87.5537 17.9113 87.5537H19.9137C20.1884 87.5537 20.4146 87.7793 20.4146 88.0572V88.2389C20.4146 88.5156 20.1884 88.7413 19.9137 88.7413Z" fill="#C1694F"/>
<path d="M31.9661 71.9794C31.5623 69.5509 27.6842 67.3599 22.1767 67.1046C22.5864 66.8409 22.9724 66.6272 23.2708 66.5345C24.1234 66.2685 23.0127 65.4456 22.185 65.4456C22.185 65.4456 20.8919 66.0453 19.8995 67.12C11.8994 67.5333 5.69793 71.9307 5.89687 73.0684C6.10409 74.2607 6.8513 73.1408 6.89866 74.1574C6.94721 75.1727 7.90165 75.2464 7.90165 75.2464C7.90165 75.2464 11.4044 74.7096 17.9279 75.2464C24.4526 75.7819 28.2775 75.9043 29.959 76.3353C31.6428 76.7652 30.9631 75.2464 30.9631 75.2464C30.9631 75.2464 32.4386 74.8295 31.9661 71.9794Z" fill="#66757F"/>
<path d="M32.6021 111.195C32.2717 106.602 20.5555 97.7029 13.9846 95.4168C6.0484 92.6546 -1.86296 94.6877 -3.68656 99.9568C-4.48113 102.256 -3.98497 104.791 -2.51543 107.149L32.6021 111.195Z" fill="#D99E82"/>
<path d="M16.2959 101.665C15.9406 102.689 16.7257 103.893 18.0484 104.354C19.3711 104.814 20.7318 104.356 21.0846 103.332C21.4399 102.309 20.6548 101.104 19.3321 100.644C18.0094 100.183 16.6499 100.641 16.2959 101.665Z" fill="#5C913B"/>
<path d="M-0.733171 103.586C-1.08723 104.611 -0.302137 105.814 1.02057 106.275C2.34327 106.736 3.70269 106.279 4.05675 105.254C4.412 104.23 3.6269 103.026 2.3042 102.565C0.981491 102.104 -0.379107 102.562 -0.733171 103.586Z" fill="#226699"/>
<path d="M1.45494 97.673C1.10088 98.6966 1.88597 99.9008 3.20867 100.362C4.53019 100.821 5.89079 100.364 6.24485 99.3391C6.6001 98.3166 5.81382 97.1113 4.4923 96.6517C3.1696 96.1897 1.809 96.6469 1.45494 97.673Z" fill="#DD2E44"/>
<path d="M9.77611 97.6554C9.45402 98.691 10.277 99.869 11.6139 100.287C12.9497 100.706 14.2961 100.205 14.617 99.1707C14.9379 98.1352 14.1149 96.9571 12.7791 96.5391C11.4434 96.1199 10.0982 96.6211 9.77611 97.6554Z" fill="#FFCC4D"/>
<path d="M94.4811 94.8143C104.218 94.8143 112.111 92.952 112.111 90.6548C112.111 88.3575 104.218 86.4952 94.4811 86.4952C84.7445 86.4952 76.8514 88.3575 76.8514 90.6548C76.8514 92.952 84.7445 94.8143 94.4811 94.8143Z" fill="#292F33"/>
<path d="M82.9934 87.09C82.8347 88.2686 82.7348 89.2469 82.7348 90.3784C82.7348 93.6045 82.4833 103.376 84.9385 103.376C87.2045 103.376 90.0793 101.003 94.4855 101.003C98.8906 101.003 101.828 103.445 104.031 103.445C106.234 103.445 106.234 100.852 106.234 90.3667C106.234 89.2351 106.134 88.2686 105.975 87.09H82.9934Z" fill="#D1D3D4"/>
<path d="M104.196 101.602H85.4338C82.5187 101.602 79.8357 105.148 78.6771 110.076C78.2456 109.057 77.6136 108.555 76.9018 108.555C75.6119 108.555 74.5565 110.853 74.5565 113.464V120.58H110.908V115.835C110.908 107.976 108.081 101.602 104.196 101.602Z" fill="#9266CC"/>
<path d="M89.7798 97.699V101.511C89.7798 101.515 89.7927 101.519 89.7974 101.524C89.9526 101.803 94.1895 109.467 94.4857 109.467C94.7831 109.467 99.0153 101.803 99.1693 101.524C99.174 101.519 99.181 101.515 99.181 101.511V97.699H89.7798Z" fill="#F7DECE"/>
<path d="M89.7869 100.761C91.0973 102.123 92.7216 102.492 94.4869 102.492C96.2534 102.492 97.8788 102.124 99.1893 100.761V97.2997H89.7869V100.761Z" fill="#EEC2AD"/>
<path d="M103.133 86.9168C103.109 86.9168 103.087 86.9263 103.062 86.9286C102.156 81.4148 98.6631 77.3013 94.4848 77.3013C90.3043 77.3013 86.8113 81.4148 85.9051 86.9298C85.8793 86.9286 85.8546 86.918 85.8287 86.918C84.7662 86.9168 83.9036 88.3018 83.9036 90.0085C83.9036 91.7152 84.7662 93.0989 85.8299 93.0989C85.8887 93.0989 85.9439 93.0789 86.0015 93.0707C87.0369 98.2426 90.4394 101.874 94.486 101.874C98.5314 101.874 101.932 98.2438 102.968 93.0718C103.023 93.0801 103.076 93.0989 103.133 93.0989C104.196 93.0989 105.059 91.7152 105.059 90.0085C105.059 88.3018 104.198 86.9168 103.133 86.9168Z" fill="#F7DECE"/>
<path d="M94.4858 99.4967C92.5983 99.4967 91.6098 98.5608 91.5041 98.4536C91.1891 98.1389 91.1891 97.6285 91.5041 97.3138C91.8167 97.0015 92.3174 96.9991 92.6335 97.3056C92.6747 97.3433 93.2811 97.8843 94.4858 97.8843C95.7058 97.8843 96.3134 97.3268 96.3381 97.3044C96.659 97.0027 97.1643 97.0121 97.4699 97.328C97.7755 97.645 97.7755 98.1424 97.4652 98.4536C97.3594 98.5608 96.3734 99.4967 94.4858 99.4967Z" fill="#DF1F32"/>
<path d="M95.5331 95.9315H93.5468C93.273 95.9315 93.0497 95.7075 93.0497 95.4329V95.2526C93.0497 94.9779 93.2718 94.7528 93.5468 94.7528H95.5331C95.8069 94.7528 96.0314 94.9768 96.0314 95.2526V95.4329C96.0314 95.7075 95.8069 95.9315 95.5331 95.9315Z" fill="#C1694F"/>
<path d="M90.5641 93.4359C90.0176 93.4359 89.5698 92.9868 89.5698 92.4376V91.4416C89.5698 90.8935 90.0176 90.4445 90.5641 90.4445C91.1118 90.4445 91.5596 90.8935 91.5596 91.4416V92.4376C91.5596 92.9868 91.1118 93.4359 90.5641 93.4359ZM98.5151 93.4359C97.9686 93.4359 97.5208 92.9868 97.5208 92.4376V91.4416C97.5208 90.8935 97.9686 90.4445 98.5151 90.4445C99.0616 90.4445 99.5094 90.8935 99.5094 91.4416V92.4376C99.5094 92.9868 99.0616 93.4359 98.5151 93.4359Z" fill="#662113"/>
<path d="M93.3058 85.9119C93.3058 85.9119 88.6046 90.6265 83.9033 90.6265C83.9033 90.6265 82.728 89.4479 83.9033 88.2692C85.0786 87.0905 93.3058 85.9119 93.3058 85.9119ZM95.6564 85.9119C95.6564 85.9119 100.358 90.6265 105.059 90.6265C105.059 90.6265 106.234 89.4479 105.059 88.2692C103.884 87.0905 95.6564 85.9119 95.6564 85.9119Z" fill="#D1D3D4"/>
<path d="M103.607 86.0969C102.164 82.9298 95.4131 68.2318 94.4811 68.2318C93.549 68.2318 86.7981 82.9298 85.3548 86.0969C79.6898 87.0917 76.8514 88.9705 76.8514 90.6265C83.9033 88.2692 89.7798 87.747 94.4811 87.747C99.1823 87.747 105.059 88.2692 112.111 90.6265C112.111 88.9705 109.272 87.0917 103.607 86.0969Z" fill="#9266CC"/>
<path d="M79.2018 110.664H76.8512V82.2134L75.6759 77.6614H80.3771L79.2018 82.2134V110.664Z" fill="#D99E82"/>
<path d="M78.0269 78.8389C79.9742 78.8389 81.5529 77.2557 81.5529 75.3028C81.5529 73.35 79.9742 71.7668 78.0269 71.7668C76.0796 71.7668 74.501 73.35 74.501 75.3028C74.501 77.2557 76.0796 78.8389 78.0269 78.8389Z" fill="#55ACEE"/>
<path d="M77.4389 76.4831C78.4125 76.4831 79.2018 75.6916 79.2018 74.7151C79.2018 73.7387 78.4125 72.9471 77.4389 72.9471C76.4652 72.9471 75.6759 73.7387 75.6759 74.7151C75.6759 75.6916 76.4652 76.4831 77.4389 76.4831Z" fill="#B0F0FF"/>
<path d="M81.5529 104.181C81.5529 106.459 79.9744 108.306 78.0269 108.306C76.0794 108.306 74.501 106.459 74.501 104.181C74.501 101.902 76.0794 101.234 78.0269 101.234C79.9744 101.234 81.5529 101.902 81.5529 104.181Z" fill="#F7DECE"/>
<path d="M78.5695 120.572V112.112C78.5695 106.505 74.0377 101.96 68.4463 101.96H41.4512C35.8615 101.96 31.328 106.505 31.328 112.112V120.572H78.5695Z" fill="#77B255"/>
<path d="M47.5926 102.14C47.5926 103.653 51.5744 105.512 54.9488 105.512C58.3232 105.512 62.3033 103.653 62.3033 102.142V95.6833H47.5909V102.14H47.5926Z" fill="#AF7E57"/>
<path d="M47.5792 98.5312C49.6308 100.856 52.1751 101.485 54.9421 101.485C57.7074 101.485 60.25 100.854 62.3033 98.5312V92.6244H47.5775V98.5312H47.5792Z" fill="#9B6A49"/>
<path d="M43.8877 81.5484C43.8877 83.9984 42.6493 85.9849 41.1224 85.9849C39.5955 85.9849 38.3571 83.9984 38.3571 81.5484C38.3571 79.0984 39.5955 77.1102 41.1224 77.1102C42.6493 77.1085 43.8877 79.0967 43.8877 81.5484ZM71.5391 81.5484C71.5391 83.9984 70.3024 85.9849 68.7738 85.9849C67.2469 85.9849 66.0085 83.9984 66.0085 81.5484C66.0085 79.0984 67.2452 77.1102 68.7738 77.1102C70.3024 77.1085 71.5391 79.0967 71.5391 81.5484Z" fill="#AF7E57"/>
<path d="M40.5685 83.2801C40.5685 73.8234 47.0068 66.1552 54.9485 66.1552C62.8901 66.1552 69.3268 73.8234 69.3268 83.2801C69.3268 92.7368 62.8901 100.405 54.9485 100.405C47.0085 100.403 40.5685 92.7368 40.5685 83.2801Z" fill="#AF7E57"/>
<path d="M54.9491 94.8587C50.3026 94.8587 48.8752 93.6658 48.6373 93.4238C48.2054 92.9907 48.2054 92.2885 48.6373 91.8553C49.0557 91.4357 49.7272 91.4239 50.1591 91.8164C50.2469 91.879 51.3756 92.6404 54.9491 92.6404C58.6609 92.6404 59.734 91.8198 59.7441 91.8113C60.176 91.3799 60.8526 91.4002 61.2845 91.8367C61.7164 92.2699 61.6928 92.9924 61.2609 93.4238C61.023 93.6658 59.5956 94.8587 54.9491 94.8587Z" fill="#915A34"/>
<path d="M54.9486 59.66C64.4779 59.66 70.4337 67.5245 70.4337 73.4009C70.4337 79.2773 69.2425 81.6292 68.0514 79.2773L65.6691 74.5769C65.6691 74.5769 58.5238 74.5769 56.1415 72.225C56.1415 72.225 59.7149 79.2773 52.568 72.225C52.568 72.225 53.7591 76.9271 46.6122 71.0507C46.6122 71.0507 43.0387 73.4009 41.8475 79.2773C41.5168 80.9084 39.4652 79.2773 39.4652 73.4009C39.4635 67.5245 44.2282 59.66 54.9486 59.66Z" fill="#60352A"/>
<path d="M48.1996 83.3482C47.2717 83.3482 46.5125 82.5867 46.5125 81.6561V79.9641C46.5125 79.0335 47.2717 78.2721 48.1996 78.2721C49.1276 78.2721 49.8868 79.0335 49.8868 79.9641V81.6561C49.8868 82.5867 49.1276 83.3482 48.1996 83.3482ZM61.6972 83.3482C60.7692 83.3482 60.01 82.5867 60.01 81.6561V79.9641C60.01 79.0335 60.7692 78.2721 61.6972 78.2721C62.6252 78.2721 63.3844 79.0335 63.3844 79.9641V81.6561C63.3844 82.5867 62.6252 83.3482 61.6972 83.3482Z" fill="#60352A"/>
<path d="M56.214 88.0013H53.6832C52.9864 88.0013 52.4178 87.4311 52.4178 86.7323C52.4178 86.0335 52.9864 85.4633 53.6832 85.4633H56.214C56.9109 85.4633 57.4794 86.0335 57.4794 86.7323C57.4794 87.4311 56.9109 88.0013 56.214 88.0013Z" fill="#915A34"/>
<path d="M75.1956 118.881C75.1956 119.816 74.4414 120.573 73.5084 120.573H56.6364C55.7034 120.573 54.9492 119.816 54.9492 118.881C54.9492 117.945 55.7034 117.189 56.6364 117.189H73.5084C74.4414 117.189 75.1956 117.945 75.1956 118.881Z" fill="#E1E8ED"/>
<path d="M53.6664 96.8844H25.8597C23.2885 96.8844 19.9917 98.1889 21.6789 102.859L26.8619 117.199C26.8636 117.199 27.5318 120.573 31.3279 120.573H65.0719L58.3231 101.554C57.5841 99.3175 56.2394 96.8844 53.6664 96.8844Z" fill="#E1E8ED"/>
<path d="M51.9794 96.8844H24.1727C21.6014 96.8844 18.3047 98.1889 19.9919 102.859L25.1749 117.199C25.1766 117.199 25.8447 120.573 29.6409 120.573H63.3848L56.6361 101.554C55.8971 99.3175 54.5524 96.8844 51.9794 96.8844Z" fill="#99AAB5"/>
<path d="M43.1708 109.208C44.0549 111.868 43.3379 114.504 41.5697 115.094C39.8015 115.687 37.652 114.01 36.7679 111.35C35.8838 108.69 36.6009 106.054 38.3691 105.463C40.1372 104.873 42.2884 106.548 43.1708 109.208ZM51.5748 101.538H24.5796C23.8811 101.538 23.3142 100.969 23.3142 100.269C23.3142 99.5684 23.8811 98.9999 24.5796 98.9999H51.5748C52.2733 98.9999 52.8402 99.5684 52.8402 100.269C52.8402 100.969 52.2733 101.538 51.5748 101.538Z" fill="#E1E8ED"/>
</g>
<defs>
<clipPath id="clip0_170_3610">
<rect x="0.199951" y="0.199951" width="117.8" height="117.8" rx="58.9" fill="white"/>
</clipPath>
<clipPath id="clip1_170_3610">
<rect width="65.3554" height="65.3554" fill="white" transform="translate(31.9586 3.30493)"/>
</clipPath>
<clipPath id="clip2_170_3610">
<rect width="29.41" height="29.41" fill="white" transform="translate(44.376 13.1086)"/>
</clipPath>
</defs>
</svg>
